<?xml version="1.0" encoding="UTF-8"?>
<svg id="Layer_1" data-name="Layer 1" xmlns="http://www.w3.org/2000/svg" viewBox="0 0 3516.03 434">
  <defs>
    <style>
      .cls-1, .cls-2 {
        fill: #5ec2a3;
      }

      .cls-3 {
        fill: #fff;
      }

      .cls-2 {
        stroke: #231f20;
        stroke-miterlimit: 10;
      }
    </style>
  </defs>
  <g>
    <polygon class="cls-2" points="434.28 404.26 405.05 433.5 308.32 433.5 261.7 386.87 261.7 384.98 260.76 385.92 213.28 433.41 213.2 433.5 116.65 433.5 116.56 433.41 164.92 385.06 212.4 337.58 181.63 306.79 159.39 284.57 109.94 284.57 109.94 216.19 187.73 216.19 229.99 258.44 256.12 284.57 260.76 289.22 261.7 290.15 309.12 337.57 330.08 358.53 356.68 385.14 385.92 355.9 434.28 404.26"/>
    <polygon class="cls-1" points="374.44 108.1 374.44 324.29 361.67 331.65 307.37 277.35 307.37 146.82 187.22 77.45 136.67 106.65 67.07 146.82 67.07 285.56 155.2 336.44 106.1 385.55 0 324.29 0 108.1 87.57 57.54 187.22 0 374.44 108.1"/>
  </g>
  <g>
    <path class="cls-3" d="M501.35,209.16c0-77.2,18.8-106.26,110.82-106.26s110.82,29.06,110.82,106.26c0,51.56-8.55,81.48-41.59,95.72l27.35,49.57h-61.82l-21.65-39.6c-4.27.29-8.55.29-13.1.29-92.02,0-110.82-29.06-110.82-105.98ZM556.34,210.87c0,45.87,7.69,61.54,55.84,61.54s55.84-15.67,55.84-61.54-7.69-61.82-55.84-61.82-55.84,15.67-55.84,61.82Z"/>
    <path class="cls-3" d="M844.62,315.14c-66.38,0-94.87-24.5-94.87-82.33v-125.92h55.55v125.92c0,26.78,9.4,37.32,40.17,37.32h18.8c29.91,0,39.88-10.54,39.88-37.32v-125.92h54.41v125.92c0,57.83-28.77,82.33-95.15,82.33h-18.8Z"/>
    <path class="cls-3" d="M1061.11,106.89h60.39l101.99,208.25h-56.41l-19.09-40.45h-111.67l-19.09,40.45h-58.11l101.99-208.25ZM1056.27,232.24h71.5l-35.89-75.78-35.61,75.78Z"/>
    <path class="cls-3" d="M1414.91,254.46V106.89h51.56v208.25h-67.8l-101.42-142.44v142.44h-51.85V106.89h66.09l103.41,147.57Z"/>
    <path class="cls-3" d="M1564.45,151.9h-73.79v-45.01h203.41v45.01h-73.78v163.24h-55.84v-163.24Z"/>
    <path class="cls-3" d="M1809.43,315.14c-66.38,0-94.87-24.5-94.87-82.33v-125.92h55.55v125.92c0,26.78,9.4,37.32,40.17,37.32h18.8c29.91,0,39.88-10.54,39.88-37.32v-125.92h54.41v125.92c0,57.83-28.77,82.33-95.15,82.33h-18.8Z"/>
    <path class="cls-3" d="M2066.09,315.14l-56.7-138.17v138.17h-50.99V106.89h74.36l60.68,148.71,62.39-148.71h73.22v208.25h-51v-137.6l-57.26,137.6h-54.7Z"/>
    <path class="cls-3" d="M2444.96,106.89h60.39l101.99,208.25h-56.41l-19.09-40.45h-111.67l-19.09,40.45h-58.11l101.99-208.25ZM2440.11,232.24h71.5l-35.89-75.78-35.61,75.78Z"/>
    <path class="cls-3" d="M2802.17,315.14h-106.83c-61.54,0-92.3-17.66-92.3-103.98s30.77-104.27,92.3-104.27h106.26v45.87h-105.98c-27.92,0-37.6,11.4-37.6,58.4s9.69,58.12,37.6,58.12h57.55v-62.39h49v108.26Z"/>
    <path class="cls-3" d="M3031.48,231.1h-135.89v39.03h137.03v45.01h-192.87V106.89h192.3v45.01h-136.46v39.03h135.89v40.17Z"/>
    <path class="cls-3" d="M3236.87,254.46V106.89h51.56v208.25h-67.8l-101.42-142.44v142.44h-51.85V106.89h66.09l103.41,147.57Z"/>
    <path class="cls-3" d="M3386.41,151.9h-73.79v-45.01h203.41v45.01h-73.78v163.24h-55.84v-163.24Z"/>
  </g>
</svg>